<svg xmlns="http://www.w3.org/2000/svg" viewBox="0 0 64 64" role="img" aria-labelledby="title">
  <title>Hong Kong Flag</title>
  <defs>
    <clipPath id="clip">
      <circle cx="32" cy="32" r="30"/>
    </clipPath>
  </defs>
  <g clip-path="url(#clip)">
    <rect width="64" height="64" fill="#d81e26"/>
    <g fill="#fff" transform="translate(32 32)">
      <g transform="rotate(0)">
        <path d="M0-18c5 0 10 5 10 11 0 7-5 12-10 17-5-5-10-10-10-17 0-6 5-11 10-11z"/>
        <circle cx="0" cy="-8" r="1.8" fill="#d81e26"/>
      </g>
      <g transform="rotate(72)">
        <path d="M0-18c5 0 10 5 10 11 0 7-5 12-10 17-5-5-10-10-10-17 0-6 5-11 10-11z"/>
        <circle cx="0" cy="-8" r="1.8" fill="#d81e26"/>
      </g>
      <g transform="rotate(144)">
        <path d="M0-18c5 0 10 5 10 11 0 7-5 12-10 17-5-5-10-10-10-17 0-6 5-11 10-11z"/>
        <circle cx="0" cy="-8" r="1.8" fill="#d81e26"/>
      </g>
      <g transform="rotate(216)">
        <path d="M0-18c5 0 10 5 10 11 0 7-5 12-10 17-5-5-10-10-10-17 0-6 5-11 10-11z"/>
        <circle cx="0" cy="-8" r="1.8" fill="#d81e26"/>
      </g>
      <g transform="rotate(288)">
        <path d="M0-18c5 0 10 5 10 11 0 7-5 12-10 17-5-5-10-10-10-17 0-6 5-11 10-11z"/>
        <circle cx="0" cy="-8" r="1.8" fill="#d81e26"/>
      </g>
    </g>
  </g>
  <circle cx="32" cy="32" r="30" fill="none" stroke="rgba(255,255,255,0.35)" stroke-width="2"/>
</svg>
